<svg width="40" height="40" viewBox="0 0 40 40" fill="none" xmlns="http://www.w3.org/2000/svg">
<path d="M28.8357 17.4998H38.6657C38.7845 17.4999 38.9007 17.5337 39.0009 17.5975C39.1011 17.6612 39.1811 17.7522 39.2315 17.8598C39.2818 17.9673 39.3005 18.087 39.2853 18.2048C39.2701 18.3225 39.2217 18.4336 39.1457 18.5248L34.2307 24.4248C34.172 24.4952 34.0986 24.5517 34.0157 24.5906C33.9328 24.6294 33.8423 24.6495 33.7507 24.6495C33.6591 24.6495 33.5686 24.6294 33.4857 24.5906C33.4028 24.5517 33.3294 24.4952 33.2707 24.4248L28.3557 18.5248C28.2797 18.4336 28.2313 18.3225 28.2161 18.2048C28.2009 18.087 28.2196 17.9673 28.2699 17.8598C28.3203 17.7522 28.4003 17.6612 28.5005 17.5975C28.6007 17.5337 28.7169 17.4999 28.8357 17.4998V17.4998ZM1.3357 22.4998H11.1657C11.2845 22.4998 11.4008 22.4659 11.501 22.4021C11.6012 22.3384 11.6811 22.2474 11.7315 22.1399C11.7818 22.0323 11.8005 21.9127 11.7853 21.7949C11.7701 21.6771 11.7217 21.5661 11.6457 21.4748L6.7307 15.5748C6.67205 15.5045 6.59865 15.4479 6.5157 15.4091C6.43276 15.3702 6.34229 15.3501 6.2507 15.3501C6.15912 15.3501 6.06865 15.3702 5.9857 15.4091C5.90276 15.4479 5.82936 15.5045 5.7707 15.5748L0.855704 21.4748C0.779698 21.5661 0.731264 21.6771 0.716072 21.7949C0.700881 21.9127 0.719562 22.0323 0.769927 22.1399C0.820292 22.2474 0.900256 22.3384 1.00046 22.4021C1.10066 22.4659 1.21694 22.4998 1.3357 22.4998V22.4998Z" fill="#999999"/>
<path fill-rule="evenodd" clip-rule="evenodd" d="M19.9995 7.49985C16.1195 7.49985 12.6495 9.26735 10.357 12.0448C10.2547 12.1775 10.1267 12.2883 9.98063 12.3705C9.83461 12.4527 9.67354 12.5047 9.50701 12.5235C9.34047 12.5422 9.17187 12.5272 9.01124 12.4795C8.8506 12.4317 8.7012 12.3522 8.57193 12.2456C8.44265 12.1389 8.33614 12.0074 8.25872 11.8587C8.1813 11.7101 8.13457 11.5474 8.12128 11.3804C8.108 11.2133 8.12844 11.0453 8.18139 10.8863C8.23435 10.7273 8.31873 10.5806 8.42953 10.4548C10.26 8.23867 12.6885 6.59488 15.4262 5.71899C18.1639 4.8431 21.0955 4.77197 23.8725 5.51407C26.6494 6.25617 29.1548 7.78026 31.0906 9.90507C33.0263 12.0299 34.3111 14.666 34.792 17.4998H32.2495C31.6723 14.6769 30.138 12.1398 27.9059 10.3177C25.6738 8.49559 22.8809 7.5002 19.9995 7.49985V7.49985ZM7.74953 22.4998C8.22281 24.8114 9.34041 26.9419 10.9732 28.6452C12.606 30.3485 14.6874 31.5551 16.9769 32.1256C19.2664 32.696 21.6706 32.6071 23.9118 31.8691C26.1529 31.1311 28.1395 29.7741 29.642 27.9548C29.7444 27.8222 29.8724 27.7114 30.0184 27.6292C30.1645 27.547 30.3255 27.495 30.4921 27.4762C30.6586 27.4575 30.8272 27.4725 30.9878 27.5202C31.1485 27.568 31.2979 27.6475 31.4271 27.7541C31.5564 27.8608 31.6629 27.9923 31.7403 28.141C31.8178 28.2896 31.8645 28.4523 31.8778 28.6193C31.8911 28.7864 31.8706 28.9544 31.8177 29.1134C31.7647 29.2724 31.6803 29.4191 31.5695 29.5448C29.7391 31.761 27.3106 33.4048 24.5729 34.2807C21.8352 35.1566 18.9035 35.2277 16.1266 34.4856C13.3497 33.7435 10.8443 32.2194 8.9085 30.0946C6.97271 27.9698 5.68795 25.3337 5.20703 22.4998H7.74953Z" fill="#999999"/>
</svg>
