<svg width="40" height="40" viewBox="0 0 40 40" fill="none" xmlns="http://www.w3.org/2000/svg">
<g clip-path="url(#clip0_850:36)">
<path d="M5.00001 15.0005C4.99993 12.5235 5.61325 10.0851 6.78521 7.90289C7.95716 5.72071 9.65127 3.86272 11.7163 2.49482C13.7813 1.12691 16.1529 0.291673 18.6193 0.063681C21.0858 -0.164312 23.5703 0.222038 25.8511 1.18823C28.1318 2.15443 30.1378 3.67039 31.6899 5.60076C33.242 7.53113 34.292 9.81583 34.7459 12.2508C35.1999 14.6859 35.0438 17.1954 34.2916 19.5554C33.5393 21.9154 32.2144 24.0523 30.435 25.7755C29.9275 26.2655 29.5375 26.7755 29.3025 27.323L27.3975 31.7455C27.3008 31.9696 27.1407 32.1606 26.9368 32.2947C26.7328 32.4289 26.4941 32.5004 26.25 32.5005C26.5815 32.5005 26.8995 32.6322 27.1339 32.8666C27.3683 33.101 27.5 33.419 27.5 33.7505C27.5 34.082 27.3683 34.3999 27.1339 34.6344C26.8995 34.8688 26.5815 35.0005 26.25 35.0005C26.5815 35.0005 26.8995 35.1322 27.1339 35.3666C27.3683 35.601 27.5 35.919 27.5 36.2505C27.5 36.582 27.3683 36.8999 27.1339 37.1344C26.8995 37.3688 26.5815 37.5005 26.25 37.5005L25.69 38.618C25.4825 39.0332 25.1636 39.3824 24.7688 39.6266C24.3741 39.8708 23.9192 40.0002 23.455 40.0005H16.545C16.0809 40.0002 15.6259 39.8708 15.2312 39.6266C14.8365 39.3824 14.5175 39.0332 14.31 38.618L13.75 37.5005C13.4185 37.5005 13.1005 37.3688 12.8661 37.1344C12.6317 36.8999 12.5 36.582 12.5 36.2505C12.5 35.919 12.6317 35.601 12.8661 35.3666C13.1005 35.1322 13.4185 35.0005 13.75 35.0005C13.4185 35.0005 13.1005 34.8688 12.8661 34.6344C12.6317 34.3999 12.5 34.082 12.5 33.7505C12.5 33.419 12.6317 33.101 12.8661 32.8666C13.1005 32.6322 13.4185 32.5005 13.75 32.5005C13.5055 32.5009 13.2662 32.4296 13.0618 32.2954C12.8574 32.1612 12.6968 31.97 12.6 31.7455L10.6975 27.3205C10.4251 26.7361 10.0403 26.2111 9.56501 25.7755C8.11907 24.3784 6.96958 22.7042 6.18524 20.8528C5.4009 19.0015 4.99779 17.0111 5.00001 15.0005V15.0005ZM20 2.50047C17.5104 2.50005 15.0774 3.24305 13.0128 4.63425C10.9482 6.02545 9.34603 8.00148 8.41165 10.3091C7.47728 12.6167 7.25326 15.1507 7.7683 17.5865C8.28335 20.0222 9.51399 22.2486 11.3025 23.9805C11.96 24.6155 12.5875 25.3905 12.9925 26.333L14.575 30.0005H25.43L27.01 26.333C27.415 25.3905 28.0425 24.6155 28.7 23.9805C30.4887 22.2485 31.7194 20.0218 32.2343 17.5858C32.7493 15.1499 32.5251 12.6156 31.5904 10.3079C30.6557 8.00021 29.0532 6.02422 26.9882 4.63321C24.9232 3.24219 22.4898 2.49955 20 2.50047V2.50047Z" fill="#999999"/>
</g>
<defs>
<clipPath id="clip0_850:36">
<rect width="40" height="40" fill="white"/>
</clipPath>
</defs>
</svg>
