<svg width="16" height="16" viewBox="0 0 16 16" fill="none" xmlns="http://www.w3.org/2000/svg">
<g clip-path="url(#clip0_589_28)">
<path fill-rule="evenodd" clip-rule="evenodd" d="M1.00089 11.5001C1.00089 11.6328 1.05357 11.7599 1.14734 11.8537C1.24111 11.9475 1.36829 12.0001 1.50089 12.0001H13.2939L10.1469 15.1461C10.053 15.24 10.0003 15.3674 10.0003 15.5001C10.0003 15.6329 10.053 15.7603 10.1469 15.8541C10.2408 15.948 10.3681 16.0008 10.5009 16.0008C10.6337 16.0008 10.761 15.948 10.8549 15.8541L14.8549 11.8541C14.9015 11.8077 14.9384 11.7525 14.9636 11.6918C14.9888 11.631 15.0018 11.5659 15.0018 11.5001C15.0018 11.4344 14.9888 11.3693 14.9636 11.3085C14.9384 11.2478 14.9015 11.1926 14.8549 11.1461L10.8549 7.14614C10.761 7.05226 10.6337 6.99951 10.5009 6.99951C10.3681 6.99951 10.2408 7.05226 10.1469 7.14614C10.053 7.24003 10.0003 7.36737 10.0003 7.50014C10.0003 7.63292 10.053 7.76026 10.1469 7.85414L13.2939 11.0001H1.50089C1.36829 11.0001 1.24111 11.0528 1.14734 11.1466C1.05357 11.2404 1.00089 11.3675 1.00089 11.5001V11.5001ZM15.0009 4.50014C15.0009 4.63275 14.9482 4.75993 14.8544 4.8537C14.7607 4.94747 14.6335 5.00014 14.5009 5.00014H2.70789L5.85489 8.14614C5.90138 8.19263 5.93826 8.24782 5.96342 8.30856C5.98858 8.3693 6.00153 8.4344 6.00153 8.50014C6.00153 8.56589 5.98858 8.63099 5.96342 8.69173C5.93826 8.75247 5.90138 8.80766 5.85489 8.85414C5.80841 8.90063 5.75322 8.93751 5.69248 8.96267C5.63174 8.98783 5.56664 9.00077 5.50089 9.00077C5.43515 9.00077 5.37005 8.98783 5.30931 8.96267C5.24857 8.93751 5.19338 8.90063 5.14689 8.85414L1.14689 4.85414C1.10033 4.8077 1.06339 4.75252 1.03818 4.69178C1.01297 4.63103 1 4.56591 1 4.50014C1 4.43438 1.01297 4.36925 1.03818 4.30851C1.06339 4.24776 1.10033 4.19259 1.14689 4.14614L5.14689 0.146143C5.24078 0.0522567 5.36812 -0.000488281 5.50089 -0.000488281C5.63367 -0.000488281 5.76101 0.0522567 5.85489 0.146143C5.94878 0.24003 6.00153 0.367368 6.00153 0.500143C6.00153 0.632919 5.94878 0.760257 5.85489 0.854143L2.70789 4.00014H14.5009C14.6335 4.00014 14.7607 4.05282 14.8544 4.14659C14.9482 4.24036 15.0009 4.36754 15.0009 4.50014Z" fill="#999999"/>
</g>
<defs>
<clipPath id="clip0_589_28">
<rect width="16" height="16" fill="white"/>
</clipPath>
</defs>
</svg>
