<svg width="40" height="40" viewBox="0 0 40 40" fill="none" xmlns="http://www.w3.org/2000/svg">
<g clip-path="url(#clip0_868:7)">
<path d="M27.5 13.75C27.5 13.4185 27.6317 13.1005 27.8661 12.8661C28.1005 12.6317 28.4185 12.5 28.75 12.5H33.75C34.0815 12.5 34.3995 12.6317 34.6339 12.8661C34.8683 13.1005 35 13.4185 35 13.75V16.25C35 16.5815 34.8683 16.8995 34.6339 17.1339C34.3995 17.3683 34.0815 17.5 33.75 17.5H28.75C28.4185 17.5 28.1005 17.3683 27.8661 17.1339C27.6317 16.8995 27.5 16.5815 27.5 16.25V13.75Z" fill="#999999"/>
<path d="M5 5C3.67392 5 2.40215 5.52678 1.46447 6.46447C0.526784 7.40215 0 8.67392 0 10L0 30C0 31.3261 0.526784 32.5979 1.46447 33.5355C2.40215 34.4732 3.67392 35 5 35H35C36.3261 35 37.5979 34.4732 38.5355 33.5355C39.4732 32.5979 40 31.3261 40 30V10C40 8.67392 39.4732 7.40215 38.5355 6.46447C37.5979 5.52678 36.3261 5 35 5H5ZM37.5 10V22.5H2.5V10C2.5 9.33696 2.76339 8.70107 3.23223 8.23223C3.70107 7.76339 4.33696 7.5 5 7.5H35C35.663 7.5 36.2989 7.76339 36.7678 8.23223C37.2366 8.70107 37.5 9.33696 37.5 10ZM35 32.5H5C4.33696 32.5 3.70107 32.2366 3.23223 31.7678C2.76339 31.2989 2.5 30.663 2.5 30V27.5H37.5V30C37.5 30.663 37.2366 31.2989 36.7678 31.7678C36.2989 32.2366 35.663 32.5 35 32.5Z" fill="#999999"/>
</g>
<defs>
<clipPath id="clip0_868:7">
<rect width="40" height="40" fill="white"/>
</clipPath>
</defs>
</svg>
