<svg width="40" height="40" viewBox="0 0 40 40" fill="none" xmlns="http://www.w3.org/2000/svg">
<path d="M37.5 35C37.5 35 40 35 40 32.5C40 30 37.5 22.5 27.5 22.5C17.5 22.5 15 30 15 32.5C15 35 17.5 35 17.5 35H37.5ZM17.555 32.5C17.5365 32.4975 17.5182 32.4941 17.5 32.49C17.5025 31.83 17.9175 29.915 19.4 28.19C20.78 26.5725 23.205 25 27.5 25C31.7925 25 34.2175 26.575 35.6 28.19C37.0825 29.915 37.495 31.8325 37.5 32.49L37.48 32.495C37.4684 32.497 37.4567 32.4986 37.445 32.5H17.555V32.5ZM27.5 17.5C28.8261 17.5 30.0979 16.9732 31.0355 16.0355C31.9732 15.0979 32.5 13.8261 32.5 12.5C32.5 11.1739 31.9732 9.90215 31.0355 8.96447C30.0979 8.02678 28.8261 7.5 27.5 7.5C26.1739 7.5 24.9021 8.02678 23.9645 8.96447C23.0268 9.90215 22.5 11.1739 22.5 12.5C22.5 13.8261 23.0268 15.0979 23.9645 16.0355C24.9021 16.9732 26.1739 17.5 27.5 17.5ZM35 12.5C35 13.4849 34.806 14.4602 34.4291 15.3701C34.0522 16.2801 33.4997 17.1069 32.8033 17.8033C32.1069 18.4997 31.2801 19.0522 30.3701 19.4291C29.4602 19.806 28.4849 20 27.5 20C26.5151 20 25.5398 19.806 24.6299 19.4291C23.7199 19.0522 22.8931 18.4997 22.1967 17.8033C21.5003 17.1069 20.9478 16.2801 20.5709 15.3701C20.194 14.4602 20 13.4849 20 12.5C20 10.5109 20.7902 8.60322 22.1967 7.1967C23.6032 5.79018 25.5109 5 27.5 5C29.4891 5 31.3968 5.79018 32.8033 7.1967C34.2098 8.60322 35 10.5109 35 12.5V12.5ZM17.34 23.2C16.34 22.8851 15.3091 22.6781 14.265 22.5825C13.6783 22.5267 13.0893 22.4992 12.5 22.5C2.5 22.5 0 30 0 32.5C0 34.1675 0.8325 35 2.5 35H13.04C12.6694 34.2195 12.4846 33.3638 12.5 32.5C12.5 29.975 13.4425 27.395 15.225 25.24C15.8325 24.505 16.54 23.8175 17.34 23.2ZM12.3 25C10.8204 27.2232 10.0211 29.8295 10 32.5H2.5C2.5 31.85 2.91 29.925 4.4 28.19C5.7625 26.6 8.13 25.05 12.3 25.0025V25ZM3.75 13.75C3.75 11.7609 4.54018 9.85322 5.9467 8.4467C7.35322 7.04018 9.26088 6.25 11.25 6.25C13.2391 6.25 15.1468 7.04018 16.5533 8.4467C17.9598 9.85322 18.75 11.7609 18.75 13.75C18.75 15.7391 17.9598 17.6468 16.5533 19.0533C15.1468 20.4598 13.2391 21.25 11.25 21.25C9.26088 21.25 7.35322 20.4598 5.9467 19.0533C4.54018 17.6468 3.75 15.7391 3.75 13.75V13.75ZM11.25 8.75C9.92392 8.75 8.65215 9.27678 7.71447 10.2145C6.77678 11.1521 6.25 12.4239 6.25 13.75C6.25 15.0761 6.77678 16.3479 7.71447 17.2855C8.65215 18.2232 9.92392 18.75 11.25 18.75C12.5761 18.75 13.8479 18.2232 14.7855 17.2855C15.7232 16.3479 16.25 15.0761 16.25 13.75C16.25 12.4239 15.7232 11.1521 14.7855 10.2145C13.8479 9.27678 12.5761 8.75 11.25 8.75Z" fill="#999999"/>
</svg>
