<svg width="16" height="16" viewBox="0 0 16 16" fill="none" xmlns="http://www.w3.org/2000/svg">
<path d="M8.06013 6.5C8.19274 6.5 8.31991 6.55268 8.41368 6.64645C8.50745 6.74021 8.56013 6.86739 8.56013 7V7.776C8.56001 8.97055 8.37378 10.1578 8.00813 11.295L6.67713 15.435C6.63415 15.5581 6.5448 15.6595 6.42813 15.7177C6.31145 15.7758 6.17668 15.7861 6.05253 15.7463C5.92838 15.7066 5.82467 15.6199 5.76351 15.5047C5.70236 15.3896 5.68858 15.2551 5.72513 15.13L7.05513 10.989C7.38898 9.95068 7.55902 8.86668 7.55913 7.776V7C7.55913 6.86739 7.61181 6.74021 7.70557 6.64645C7.79934 6.55268 7.92652 6.5 8.05913 6.5H8.06013Z" fill="#999999"/>
<path d="M6.06007 7C6.06007 6.73736 6.1118 6.47728 6.21231 6.23463C6.31282 5.99198 6.46014 5.7715 6.64586 5.58579C6.83157 5.40007 7.05205 5.25275 7.2947 5.15224C7.53735 5.05173 7.79743 5 8.06007 5C8.32271 5 8.58279 5.05173 8.82544 5.15224C9.06809 5.25275 9.28857 5.40007 9.47428 5.58579C9.66 5.7715 9.80732 5.99198 9.90783 6.23463C10.0083 6.47728 10.0601 6.73736 10.0601 7C10.0601 7.13261 10.0074 7.25979 9.91362 7.35355C9.81986 7.44732 9.69268 7.5 9.56007 7.5C9.42746 7.5 9.30029 7.44732 9.20652 7.35355C9.11275 7.25979 9.06007 7.13261 9.06007 7C9.06007 6.73478 8.95471 6.48043 8.76718 6.29289C8.57964 6.10536 8.32529 6 8.06007 6C7.79485 6 7.5405 6.10536 7.35296 6.29289C7.16543 6.48043 7.06007 6.73478 7.06007 7V7.332C7.06007 7.741 7.03807 8.148 6.99407 8.553C6.97677 8.68212 6.90975 8.79938 6.80729 8.87984C6.70483 8.96029 6.57502 8.99758 6.44548 8.98377C6.31594 8.96995 6.19691 8.90613 6.11372 8.80588C6.03053 8.70562 5.98976 8.57686 6.00007 8.447C6.04007 8.077 6.06007 7.705 6.06007 7.332V7ZM9.56907 8C9.63474 8.00169 9.69943 8.01629 9.75945 8.04299C9.81947 8.06969 9.87364 8.10795 9.91887 8.15559C9.96409 8.20323 9.99949 8.25932 10.023 8.32064C10.0466 8.38197 10.0578 8.44733 10.0561 8.513C10.0264 9.64889 9.82862 10.7741 9.46907 11.852L8.20307 15.652C8.16103 15.7778 8.07073 15.8818 7.95202 15.9411C7.83331 16.0004 7.69592 16.01 7.57007 15.968C7.44423 15.926 7.34023 15.8357 7.28097 15.7169C7.22171 15.5982 7.21203 15.4608 7.25407 15.335L8.52107 11.535C8.84897 10.551 9.02926 9.52385 9.05607 8.487C9.05776 8.42133 9.07236 8.35664 9.09906 8.29662C9.12576 8.2366 9.16402 8.18243 9.21166 8.1372C9.2593 8.09198 9.31539 8.05658 9.37671 8.03304C9.43804 8.0095 9.5034 7.99827 9.56907 8V8ZM6.21307 10.115C6.27587 10.1344 6.33423 10.166 6.38482 10.2079C6.4354 10.2499 6.47721 10.3014 6.50786 10.3596C6.53851 10.4177 6.5574 10.4813 6.56344 10.5468C6.56948 10.6122 6.56256 10.6782 6.54307 10.741L5.24007 14.939C5.2216 15.0028 5.19059 15.0624 5.14885 15.1141C5.10711 15.1658 5.05548 15.2087 4.99698 15.2402C4.93848 15.2717 4.87428 15.2913 4.80813 15.2977C4.74198 15.3041 4.67522 15.2973 4.61174 15.2776C4.54826 15.258 4.48934 15.2258 4.43842 15.1831C4.38751 15.1404 4.34562 15.088 4.3152 15.0289C4.28479 14.9698 4.26646 14.9052 4.26128 14.839C4.25611 14.7727 4.2642 14.7061 4.28507 14.643L5.58807 10.444C5.62745 10.3176 5.71537 10.2119 5.83254 10.1503C5.94971 10.0886 6.08656 10.0759 6.21307 10.115V10.115Z" fill="#999999"/>
<path d="M4.75828 5.83292C5.03446 5.05553 5.57628 4.40064 6.2882 3.98377C7.00011 3.56689 7.83637 3.41482 8.64946 3.55436C9.46256 3.6939 10.2003 4.1161 10.7324 4.74648C11.2646 5.37686 11.5571 6.17493 11.5583 6.99992C11.5583 7.13253 11.5056 7.2597 11.4118 7.35347C11.3181 7.44724 11.1909 7.49992 11.0583 7.49992C10.9257 7.49992 10.7985 7.44724 10.7047 7.35347C10.611 7.2597 10.5583 7.13253 10.5583 6.99992C10.5582 6.41022 10.3496 5.83953 9.9695 5.38872C9.58936 4.9379 9.06209 4.63597 8.48088 4.53629C7.89966 4.43661 7.30192 4.54559 6.79329 4.84398C6.28465 5.14237 5.89787 5.61095 5.70128 6.16692C5.65699 6.29197 5.56484 6.3943 5.4451 6.4514C5.32536 6.50851 5.18783 6.51571 5.06278 6.47142C4.93773 6.42713 4.8354 6.33497 4.7783 6.21523C4.72119 6.09549 4.71399 5.95797 4.75828 5.83292V5.83292ZM5.05828 7.50292C5.19021 7.51582 5.31162 7.58058 5.39582 7.68296C5.48002 7.78535 5.52011 7.91698 5.50728 8.04892C5.43978 8.73723 5.30582 9.4174 5.10728 10.0799L3.88528 14.1519C3.84723 14.279 3.76026 14.3857 3.64352 14.4486C3.52678 14.5115 3.38982 14.5255 3.26278 14.4874C3.13575 14.4494 3.02903 14.3624 2.96611 14.2457C2.90319 14.1289 2.88923 13.992 2.92728 13.8649L4.14928 9.79292C4.32944 9.19207 4.451 8.57519 4.51228 7.95092C4.52518 7.81899 4.58994 7.69758 4.69233 7.61338C4.79472 7.52918 4.92635 7.48909 5.05828 7.50192V7.50292ZM11.0583 8.14992C11.1909 8.14992 11.3181 8.2026 11.4118 8.29636C11.5056 8.39013 11.5583 8.51731 11.5583 8.64992C11.5583 9.92992 11.3453 11.2019 10.9263 12.4119L9.83628 15.5569C9.78881 15.6767 9.69697 15.7734 9.57989 15.8271C9.46281 15.8808 9.32953 15.8873 9.20783 15.8451C9.08612 15.8029 8.98538 15.7154 8.92659 15.6008C8.86781 15.4862 8.85552 15.3534 8.89228 15.2299L9.98128 12.0849C10.3633 10.9799 10.5593 9.81892 10.5593 8.64992C10.5593 8.51731 10.612 8.39013 10.7057 8.29636C10.7995 8.2026 10.9267 8.14992 11.0593 8.14992H11.0583Z" fill="#999999"/>
<path d="M3.90202 4.22221C4.45757 3.38934 5.25054 2.74258 6.17811 2.36581C7.10567 1.98905 8.12503 1.89965 9.10402 2.10921C9.1683 2.12287 9.22926 2.14906 9.28343 2.18627C9.33759 2.22349 9.38389 2.27101 9.41969 2.32612C9.45548 2.38124 9.48007 2.44286 9.49206 2.50747C9.50404 2.57209 9.50318 2.63843 9.48952 2.70271C9.47586 2.767 9.44968 2.82796 9.41246 2.88212C9.37524 2.93628 9.32772 2.98259 9.27261 3.01838C9.2175 3.05418 9.15587 3.07877 9.09126 3.09075C9.02664 3.10273 8.9603 3.10187 8.89602 3.08821C8.11266 2.92011 7.29686 2.99136 6.55451 3.29273C5.81215 3.59409 5.17753 4.11165 4.73302 4.77821C4.65823 4.88589 4.54414 4.95988 4.41533 4.98426C4.28651 5.00864 4.15328 4.98145 4.04432 4.90854C3.93535 4.83564 3.85939 4.72286 3.83277 4.59449C3.80615 4.46612 3.83102 4.33243 3.90202 4.22221V4.22221ZM10.622 3.26721C10.7086 3.16686 10.8316 3.10501 10.9638 3.09526C11.096 3.08551 11.2266 3.12866 11.327 3.21521C11.8712 3.68425 12.3076 4.26525 12.6065 4.9185C12.9054 5.57174 13.0598 6.28183 13.059 7.00021V8.50021C13.059 8.63282 13.0063 8.76 12.9126 8.85377C12.8188 8.94754 12.6916 9.00021 12.559 9.00021C12.4264 9.00021 12.2992 8.94754 12.2055 8.85377C12.1117 8.76 12.059 8.63282 12.059 8.50021V7.00021C12.0597 6.42545 11.9362 5.85732 11.697 5.33471C11.4578 4.81209 11.1085 4.34732 10.673 3.97221C10.5728 3.88546 10.5111 3.76247 10.5016 3.63027C10.492 3.49807 10.5353 3.36749 10.622 3.26721ZM3.68002 5.84221C3.74504 5.85176 3.80755 5.87402 3.86396 5.90774C3.92037 5.94146 3.96958 5.98597 4.00877 6.03873C4.04797 6.09148 4.07638 6.15145 4.09238 6.21519C4.10838 6.27893 4.11165 6.3452 4.10202 6.41021C4.07302 6.60221 4.05802 6.80021 4.05802 7.00021C4.05802 7.71021 3.95802 8.41721 3.76002 9.10021L2.62002 13.0232C2.60293 13.0876 2.57314 13.148 2.53239 13.2008C2.49164 13.2535 2.44075 13.2976 2.38272 13.3304C2.32469 13.3632 2.26069 13.384 2.19448 13.3917C2.12827 13.3994 2.06119 13.3938 1.99718 13.3752C1.93317 13.3566 1.87353 13.3254 1.82176 13.2834C1.76999 13.2414 1.72714 13.1895 1.69573 13.1307C1.66431 13.0719 1.64497 13.0074 1.63884 12.9411C1.63271 12.8747 1.63991 12.8078 1.66002 12.7442L2.80002 8.82121C2.97148 8.22942 3.05834 7.61635 3.05802 7.00021C3.05802 6.75021 3.07702 6.50421 3.11202 6.26421C3.12156 6.19919 3.14383 6.13668 3.17755 6.08027C3.21127 6.02386 3.25578 5.97465 3.30853 5.93546C3.36129 5.89627 3.42125 5.86786 3.48499 5.85186C3.54874 5.83586 3.61501 5.83258 3.68002 5.84221V5.84221ZM12.562 9.50221C12.6941 9.51341 12.8163 9.57658 12.9018 9.67783C12.9873 9.77909 13.0291 9.91015 13.018 10.0422C12.934 11.0422 12.72 12.0282 12.378 12.9762L11.634 15.0442C11.5876 15.1669 11.4949 15.2665 11.3758 15.3214C11.2567 15.3764 11.1207 15.3823 10.9973 15.338C10.8738 15.2936 10.7728 15.2026 10.7158 15.0844C10.6589 14.9662 10.6507 14.8304 10.693 14.7062L11.438 12.6362C11.7487 11.7729 11.9451 10.8725 12.022 9.95821C12.0332 9.82616 12.0964 9.70395 12.1976 9.61845C12.2989 9.53295 12.43 9.49114 12.562 9.50221V9.50221Z" fill="#999999"/>
<path d="M4.81059 1.36986C5.79878 0.799329 6.91974 0.498987 8.0608 0.499023C9.20186 0.49906 10.3228 0.799474 11.311 1.37007C12.2991 1.94066 13.1196 2.76132 13.6901 3.74957C14.2605 4.73781 14.5607 5.8588 14.5606 6.99986C14.5606 7.13247 14.5079 7.25964 14.4141 7.35341C14.3204 7.44718 14.1932 7.49986 14.0606 7.49986C13.928 7.49986 13.8008 7.44718 13.707 7.35341C13.6133 7.25964 13.5606 7.13247 13.5606 6.99986C13.5609 6.03425 13.307 5.08557 12.8244 4.24921C12.3418 3.41284 11.6476 2.71827 10.8114 2.23532C9.97524 1.75238 9.02667 1.49808 8.06106 1.498C7.09545 1.49792 6.14683 1.75205 5.31059 2.23486C5.19632 2.29463 5.06337 2.30795 4.93952 2.27202C4.81566 2.23609 4.71048 2.15369 4.64595 2.04204C4.58141 1.93039 4.56251 1.79812 4.59319 1.67286C4.62387 1.5476 4.70176 1.43904 4.81059 1.36986V1.36986ZM3.92059 2.62686C3.96958 2.67059 4.00947 2.72354 4.03799 2.78268C4.06651 2.84183 4.0831 2.90601 4.08682 2.97157C4.09053 3.03713 4.0813 3.10278 4.05964 3.16477C4.03798 3.22676 4.00432 3.28388 3.96059 3.33286C3.05699 4.3403 2.55828 5.64656 2.56059 6.99986C2.56059 7.13247 2.50791 7.25964 2.41415 7.35341C2.32038 7.44718 2.1932 7.49986 2.06059 7.49986C1.92798 7.49986 1.80081 7.44718 1.70704 7.35341C1.61327 7.25964 1.56059 7.13247 1.56059 6.99986C1.56059 5.33586 2.18659 3.81586 3.21559 2.66686C3.25932 2.61787 3.31227 2.57798 3.37142 2.54946C3.43056 2.52094 3.49475 2.50435 3.56031 2.50063C3.62587 2.49692 3.69151 2.50615 3.7535 2.52781C3.81549 2.54947 3.87261 2.58313 3.92159 2.62686H3.92059ZM1.91559 8.01986C2.0431 8.05576 2.15115 8.14079 2.21602 8.25628C2.28089 8.37178 2.29728 8.50829 2.26159 8.63586L1.48259 11.4029C1.46704 11.4684 1.4384 11.5301 1.39839 11.5844C1.35839 11.6386 1.30783 11.6841 1.24978 11.7183C1.19172 11.7525 1.12735 11.7746 1.06054 11.7833C0.993727 11.792 0.925849 11.7871 0.860982 11.7688C0.796114 11.7506 0.735596 11.7195 0.68306 11.6773C0.630524 11.6352 0.587054 11.5828 0.555262 11.5234C0.52347 11.464 0.50401 11.3988 0.498053 11.3317C0.492095 11.2646 0.499761 11.1969 0.520592 11.1329L1.29859 8.36586C1.31636 8.30261 1.34642 8.24349 1.38705 8.19187C1.42769 8.14024 1.47809 8.09713 1.53539 8.065C1.59269 8.03287 1.65576 8.01234 1.721 8.0046C1.78624 7.99685 1.85236 8.00204 1.91559 8.01986V8.01986ZM14.0656 8.50086C14.1313 8.50216 14.196 8.51638 14.2562 8.54272C14.3164 8.56905 14.3707 8.60699 14.4162 8.65435C14.4617 8.70171 14.4975 8.75757 14.5214 8.81874C14.5453 8.87991 14.5569 8.94519 14.5556 9.01086C14.5256 10.5099 14.3946 12.0359 13.8286 13.5439L13.7586 13.7309C13.7096 13.8516 13.6154 13.9485 13.4961 14.0008C13.3768 14.0532 13.2417 14.0569 13.1197 14.0111C12.9977 13.9654 12.8983 13.8738 12.8428 13.7559C12.7874 13.638 12.7801 13.503 12.8226 13.3799L12.8926 13.1929C13.3986 11.8429 13.5266 10.4529 13.5556 8.99086C13.5569 8.92519 13.5711 8.86043 13.5975 8.80026C13.6238 8.7401 13.6617 8.68571 13.7091 8.6402C13.7564 8.5947 13.8123 8.55897 13.8735 8.53506C13.9346 8.51116 13.9999 8.49953 14.0656 8.50086V8.50086Z" fill="#999999"/>
</svg>
