<svg width="40" height="40" viewBox="0 0 40 40" fill="none" xmlns="http://www.w3.org/2000/svg">
<path d="M0 5C0 3.67392 0.526784 2.40215 1.46447 1.46447C2.40215 0.526784 3.67392 0 5 0L25 0C26.3261 0 27.5979 0.526784 28.5355 1.46447C29.4732 2.40215 30 3.67392 30 5V10H35C36.3261 10 37.5979 10.5268 38.5355 11.4645C39.4732 12.4021 40 13.6739 40 15V35C40 36.3261 39.4732 37.5979 38.5355 38.5355C37.5979 39.4732 36.3261 40 35 40H15C13.6739 40 12.4021 39.4732 11.4645 38.5355C10.5268 37.5979 10 36.3261 10 35V30H5C3.67392 30 2.40215 29.4732 1.46447 28.5355C0.526784 27.5979 0 26.3261 0 25V5ZM12.5 30V35C12.5 35.663 12.7634 36.2989 13.2322 36.7678C13.7011 37.2366 14.337 37.5 15 37.5H35C35.663 37.5 36.2989 37.2366 36.7678 36.7678C37.2366 36.2989 37.5 35.663 37.5 35V15C37.5 14.337 37.2366 13.7011 36.7678 13.2322C36.2989 12.7634 35.663 12.5 35 12.5H30V25C30 26.3261 29.4732 27.5979 28.5355 28.5355C27.5979 29.4732 26.3261 30 25 30H12.5ZM27.5 10V5C27.5 4.33696 27.2366 3.70107 26.7678 3.23223C26.2989 2.76339 25.663 2.5 25 2.5H5C4.33696 2.5 3.70107 2.76339 3.23223 3.23223C2.76339 3.70107 2.5 4.33696 2.5 5V25C2.5 25.663 2.76339 26.2989 3.23223 26.7678C3.70107 27.2366 4.33696 27.5 5 27.5H10V15C10 13.6739 10.5268 12.4021 11.4645 11.4645C12.4021 10.5268 13.6739 10 15 10H27.5Z" fill="#999999"/>
</svg>
