<svg width="40" height="40" viewBox="0 0 40 40" fill="none" xmlns="http://www.w3.org/2000/svg">
<path d="M7.5 11.25H32.5C33.8261 11.25 35.0979 11.7768 36.0355 12.7145C36.9732 13.6521 37.5 14.9239 37.5 16.25V23.75C37.5 25.0761 36.9732 26.3479 36.0355 27.2855C35.0979 28.2232 33.8261 28.75 32.5 28.75H7.5C6.17392 28.75 4.90215 28.2232 3.96447 27.2855C3.02678 26.3479 2.5 25.0761 2.5 23.75V16.25C2.5 14.9239 3.02678 13.6521 3.96447 12.7145C4.90215 11.7768 6.17392 11.25 7.5 11.25V11.25ZM7.5 13.75C6.83696 13.75 6.20107 14.0134 5.73223 14.4822C5.26339 14.9511 5 15.587 5 16.25V23.75C5 24.413 5.26339 25.0489 5.73223 25.5178C6.20107 25.9866 6.83696 26.25 7.5 26.25H32.5C33.163 26.25 33.7989 25.9866 34.2678 25.5178C34.7366 25.0489 35 24.413 35 23.75V16.25C35 15.587 34.7366 14.9511 34.2678 14.4822C33.7989 14.0134 33.163 13.75 32.5 13.75H7.5ZM2.5 5C2.5 4.66848 2.6317 4.35054 2.86612 4.11612C3.10054 3.8817 3.41848 3.75 3.75 3.75H36.25C36.5815 3.75 36.8995 3.8817 37.1339 4.11612C37.3683 4.35054 37.5 4.66848 37.5 5C37.5 5.33152 37.3683 5.64946 37.1339 5.88388C36.8995 6.1183 36.5815 6.25 36.25 6.25H3.75C3.41848 6.25 3.10054 6.1183 2.86612 5.88388C2.6317 5.64946 2.5 5.33152 2.5 5V5ZM2.5 35C2.5 34.6685 2.6317 34.3505 2.86612 34.1161C3.10054 33.8817 3.41848 33.75 3.75 33.75H36.25C36.5815 33.75 36.8995 33.8817 37.1339 34.1161C37.3683 34.3505 37.5 34.6685 37.5 35C37.5 35.3315 37.3683 35.6495 37.1339 35.8839C36.8995 36.1183 36.5815 36.25 36.25 36.25H3.75C3.41848 36.25 3.10054 36.1183 2.86612 35.8839C2.6317 35.6495 2.5 35.3315 2.5 35V35Z" fill="#999999"/>
</svg>
