<svg width="40" height="40" viewBox="0 0 40 40" fill="none" xmlns="http://www.w3.org/2000/svg">
<g clip-path="url(#clip0_857:4)">
<path d="M17.5 6.25C17.5 5.91848 17.6317 5.60054 17.8661 5.36612C18.1005 5.1317 18.4185 5 18.75 5H36.25C36.5815 5 36.8995 5.1317 37.1339 5.36612C37.3683 5.60054 37.5 5.91848 37.5 6.25V8.75C37.5 9.08152 37.3683 9.39946 37.1339 9.63388C36.8995 9.8683 36.5815 10 36.25 10H18.75C18.4185 10 18.1005 9.8683 17.8661 9.63388C17.6317 9.39946 17.5 9.08152 17.5 8.75V6.25ZM5 2.5C3.67392 2.5 2.40215 3.02678 1.46447 3.96447C0.526784 4.90215 0 6.17392 0 7.5L0 12.5C0 13.8261 0.526784 15.0979 1.46447 16.0355C2.40215 16.9732 3.67392 17.5 5 17.5H10C11.3261 17.5 12.5979 16.9732 13.5355 16.0355C14.4732 15.0979 15 13.8261 15 12.5V7.5C15 6.17392 14.4732 4.90215 13.5355 3.96447C12.5979 3.02678 11.3261 2.5 10 2.5H5ZM5 22.5C3.67392 22.5 2.40215 23.0268 1.46447 23.9645C0.526784 24.9021 0 26.1739 0 27.5L0 32.5C0 33.8261 0.526784 35.0979 1.46447 36.0355C2.40215 36.9732 3.67392 37.5 5 37.5H10C11.3261 37.5 12.5979 36.9732 13.5355 36.0355C14.4732 35.0979 15 33.8261 15 32.5V27.5C15 26.1739 14.4732 24.9021 13.5355 23.9645C12.5979 23.0268 11.3261 22.5 10 22.5H5ZM7.135 13.385C7.01889 13.5014 6.88095 13.5938 6.72908 13.6568C6.57722 13.7198 6.41442 13.7522 6.25 13.7522C6.08558 13.7522 5.92278 13.7198 5.77092 13.6568C5.61905 13.5938 5.48111 13.5014 5.365 13.385L2.865 10.885C2.74878 10.7688 2.65659 10.6308 2.59369 10.479C2.53079 10.3271 2.49842 10.1644 2.49842 10C2.49842 9.83564 2.53079 9.67289 2.59369 9.52104C2.65659 9.36919 2.74878 9.23122 2.865 9.115C2.98122 8.99878 3.11919 8.90659 3.27104 8.84369C3.42289 8.78079 3.58564 8.74842 3.75 8.74842C3.91436 8.74842 4.07711 8.78079 4.22896 8.84369C4.38081 8.90659 4.51878 8.99878 4.635 9.115L6.25 10.7325L10.365 6.615C10.4812 6.49878 10.6192 6.40659 10.771 6.34369C10.9229 6.28079 11.0856 6.24842 11.25 6.24842C11.4144 6.24842 11.5771 6.28079 11.729 6.34369C11.8808 6.40659 12.0188 6.49878 12.135 6.615C12.2512 6.73122 12.3434 6.86919 12.4063 7.02104C12.4692 7.17289 12.5016 7.33564 12.5016 7.5C12.5016 7.66436 12.4692 7.82711 12.4063 7.97896C12.3434 8.13081 12.2512 8.26878 12.135 8.385L7.135 13.385ZM7.135 33.385C7.01889 33.5014 6.88095 33.5938 6.72908 33.6568C6.57722 33.7198 6.41442 33.7522 6.25 33.7522C6.08558 33.7522 5.92278 33.7198 5.77092 33.6568C5.61905 33.5938 5.48111 33.5014 5.365 33.385L2.865 30.885C2.63028 30.6503 2.49842 30.3319 2.49842 30C2.49842 29.6681 2.63028 29.3497 2.865 29.115C3.09972 28.8803 3.41806 28.7484 3.75 28.7484C4.08194 28.7484 4.40028 28.8803 4.635 29.115L6.25 30.7325L10.365 26.615C10.5997 26.3803 10.9181 26.2484 11.25 26.2484C11.5819 26.2484 11.9003 26.3803 12.135 26.615C12.3697 26.8497 12.5016 27.1681 12.5016 27.5C12.5016 27.8319 12.3697 28.1503 12.135 28.385L7.135 33.385ZM17.5 26.25C17.5 25.9185 17.6317 25.6005 17.8661 25.3661C18.1005 25.1317 18.4185 25 18.75 25H36.25C36.5815 25 36.8995 25.1317 37.1339 25.3661C37.3683 25.6005 37.5 25.9185 37.5 26.25V28.75C37.5 29.0815 37.3683 29.3995 37.1339 29.6339C36.8995 29.8683 36.5815 30 36.25 30H18.75C18.4185 30 18.1005 29.8683 17.8661 29.6339C17.6317 29.3995 17.5 29.0815 17.5 28.75V26.25ZM17.5 13.75C17.5 13.4185 17.6317 13.1005 17.8661 12.8661C18.1005 12.6317 18.4185 12.5 18.75 12.5H31.25C31.5815 12.5 31.8995 12.6317 32.1339 12.8661C32.3683 13.1005 32.5 13.4185 32.5 13.75C32.5 14.0815 32.3683 14.3995 32.1339 14.6339C31.8995 14.8683 31.5815 15 31.25 15H18.75C18.4185 15 18.1005 14.8683 17.8661 14.6339C17.6317 14.3995 17.5 14.0815 17.5 13.75ZM17.5 33.75C17.5 33.4185 17.6317 33.1005 17.8661 32.8661C18.1005 32.6317 18.4185 32.5 18.75 32.5H31.25C31.5815 32.5 31.8995 32.6317 32.1339 32.8661C32.3683 33.1005 32.5 33.4185 32.5 33.75C32.5 34.0815 32.3683 34.3995 32.1339 34.6339C31.8995 34.8683 31.5815 35 31.25 35H18.75C18.4185 35 18.1005 34.8683 17.8661 34.6339C17.6317 34.3995 17.5 34.0815 17.5 33.75Z" fill="#999999"/>
</g>
<defs>
<clipPath id="clip0_857:4">
<rect width="40" height="40" fill="white"/>
</clipPath>
</defs>
</svg>
