<svg width="40" height="40" viewBox="0 0 40 40" fill="none" xmlns="http://www.w3.org/2000/svg">
<g clip-path="url(#clip0_868:13)">
<path fill-rule="evenodd" clip-rule="evenodd" d="M27.5 37.5C30.1522 37.5 32.6957 36.4464 34.5711 34.5711C36.4464 32.6957 37.5 30.1522 37.5 27.5C37.5 24.8478 36.4464 22.3043 34.5711 20.4289C32.6957 18.5536 30.1522 17.5 27.5 17.5C24.8478 17.5 22.3043 18.5536 20.4289 20.4289C18.5536 22.3043 17.5 24.8478 17.5 27.5C17.5 30.1522 18.5536 32.6957 20.4289 34.5711C22.3043 36.4464 24.8478 37.5 27.5 37.5V37.5ZM40 27.5C40 30.8152 38.683 33.9946 36.3388 36.3388C33.9946 38.683 30.8152 40 27.5 40C24.1848 40 21.0054 38.683 18.6612 36.3388C16.317 33.9946 15 30.8152 15 27.5C15 24.1848 16.317 21.0054 18.6612 18.6612C21.0054 16.317 24.1848 15 27.5 15C30.8152 15 33.9946 16.317 36.3388 18.6612C38.683 21.0054 40 24.1848 40 27.5V27.5Z" fill="#999999"/>
<path d="M23.595 29.86C23.7125 31.35 24.89 32.51 27.0025 32.65V33.75H27.94V32.6425C30.1275 32.49 31.405 31.32 31.405 29.625C31.405 28.08 30.43 27.285 28.68 26.875L27.94 26.7V23.7C28.88 23.8075 29.475 24.32 29.6175 25.03H31.2625C31.145 23.5925 29.9125 22.47 27.94 22.3475V21.25H27.0025V22.375C25.135 22.5575 23.865 23.68 23.865 25.27C23.865 26.675 24.81 27.57 26.3825 27.935L27.0025 28.0875V31.2675C26.0425 31.1225 25.405 30.5925 25.2625 29.86H23.5925H23.595ZM26.995 26.475C26.0725 26.2625 25.5725 25.825 25.5725 25.17C25.5725 24.435 26.1125 23.885 27.0025 23.725V26.475H26.995V26.475ZM28.075 28.34C29.1975 28.6 29.7125 29.02 29.7125 29.7625C29.7125 30.61 29.07 31.19 27.94 31.2975V28.31L28.075 28.34V28.34Z" fill="#999999"/>
<path d="M2.5 0C1.83696 0 1.20107 0.263392 0.732233 0.732233C0.263392 1.20107 0 1.83696 0 2.5L0 22.5C0 23.163 0.263392 23.7989 0.732233 24.2678C1.20107 24.7366 1.83696 25 2.5 25H12.7075C12.8525 24.14 13.07 23.305 13.3525 22.5H7.5C7.5 21.1739 6.97322 19.9021 6.03553 18.9645C5.09785 18.0268 3.82608 17.5 2.5 17.5V7.5C3.82608 7.5 5.09785 6.97322 6.03553 6.03553C6.97322 5.09785 7.5 3.82608 7.5 2.5H32.5C32.5 3.82608 33.0268 5.09785 33.9645 6.03553C34.9021 6.97322 36.1739 7.5 37.5 7.5V16.32C38.45 17.17 39.2925 18.14 40 19.205V2.5C40 1.83696 39.7366 1.20107 39.2678 0.732233C38.7989 0.263392 38.163 0 37.5 0L2.5 0Z" fill="#999999"/>
<path d="M24.995 12.7075L25 12.5C24.9995 11.6389 24.7766 10.7926 24.353 10.043C23.9294 9.29342 23.3194 8.6659 22.5821 8.22125C21.8448 7.7766 21.0051 7.52989 20.1445 7.50502C19.2838 7.48014 18.4313 7.67794 17.6695 8.07926C16.9077 8.48058 16.2625 9.07181 15.7963 9.7957C15.3301 10.5196 15.0588 11.3516 15.0085 12.2112C14.9583 13.0707 15.1309 13.9287 15.5095 14.702C15.8882 15.4752 16.4602 16.1376 17.17 16.625C19.3294 14.5681 22.0544 13.2039 24.995 12.7075V12.7075Z" fill="#999999"/>
</g>
<defs>
<clipPath id="clip0_868:13">
<rect width="40" height="40" fill="white"/>
</clipPath>
</defs>
</svg>
