<svg width="40" height="40" viewBox="0 0 40 40" fill="none" xmlns="http://www.w3.org/2000/svg">
<g clip-path="url(#clip0_857:11)">
<path d="M0 32.5C0 33.4946 0.395088 34.4484 1.09835 35.1517C1.80161 35.8549 2.75544 36.25 3.75 36.25H36.25C37.2446 36.25 38.1984 35.8549 38.9017 35.1517C39.6049 34.4484 40 33.4946 40 32.5V15C40 14.0054 39.6049 13.0516 38.9017 12.3483C38.1984 11.6451 37.2446 11.25 36.25 11.25H3.75C2.75544 11.25 1.80161 11.6451 1.09835 12.3483C0.395088 13.0516 0 14.0054 0 15L0 32.5ZM5 7.5C5 7.83152 5.1317 8.14946 5.36612 8.38388C5.60054 8.6183 5.91848 8.75 6.25 8.75H33.75C34.0815 8.75 34.3995 8.6183 34.6339 8.38388C34.8683 8.14946 35 7.83152 35 7.5C35 7.16848 34.8683 6.85054 34.6339 6.61612C34.3995 6.3817 34.0815 6.25 33.75 6.25H6.25C5.91848 6.25 5.60054 6.3817 5.36612 6.61612C5.1317 6.85054 5 7.16848 5 7.5V7.5ZM10 2.5C10 2.83152 10.1317 3.14946 10.3661 3.38388C10.6005 3.6183 10.9185 3.75 11.25 3.75H28.75C29.0815 3.75 29.3995 3.6183 29.6339 3.38388C29.8683 3.14946 30 2.83152 30 2.5C30 2.16848 29.8683 1.85054 29.6339 1.61612C29.3995 1.3817 29.0815 1.25 28.75 1.25H11.25C10.9185 1.25 10.6005 1.3817 10.3661 1.61612C10.1317 1.85054 10 2.16848 10 2.5V2.5Z" fill="#999999"/>
</g>
<defs>
<clipPath id="clip0_857:11">
<rect width="40" height="40" fill="white"/>
</clipPath>
</defs>
</svg>
