<svg width="40" height="40" viewBox="0 0 40 40" fill="none" xmlns="http://www.w3.org/2000/svg">
<g clip-path="url(#clip0_857:6)">
<path d="M35.3007 25.4073L39.5882 27.5523C40.1382 27.8273 40.1382 28.6123 39.5882 28.8873L20.6682 38.3498C20.4609 38.4532 20.2324 38.5071 20.0007 38.5071C19.769 38.5071 19.5405 38.4532 19.3332 38.3498L0.413173 28.8873C0.289577 28.825 0.185705 28.7296 0.113129 28.6117C0.0405538 28.4939 0.00212526 28.3582 0.00212526 28.2198C0.00212526 28.0814 0.0405538 27.9457 0.113129 27.8278C0.185705 27.71 0.289577 27.6146 0.413173 27.5523L4.70317 25.4073L17.9957 32.0548C19.2582 32.6848 20.7457 32.6848 22.0057 32.0548L35.2982 25.4048L35.3007 25.4073ZM19.3332 0.15729C19.5405 0.0538465 19.769 0 20.0007 0C20.2324 0 20.4609 0.0538465 20.6682 0.15729L39.5882 9.61729C39.7117 9.67999 39.8154 9.77566 39.8878 9.8937C39.9603 10.0117 39.9987 10.1475 39.9987 10.286C39.9987 10.4245 39.9603 10.5603 39.8878 10.6784C39.8154 10.7964 39.7117 10.8921 39.5882 10.9548L20.6682 20.4123C20.4609 20.5157 20.2324 20.5696 20.0007 20.5696C19.769 20.5696 19.5405 20.5157 19.3332 20.4123L0.413173 10.9548C0.288922 10.8927 0.184414 10.7973 0.11137 10.6792C0.0383255 10.5611 -0.000366211 10.4249 -0.000366211 10.286C-0.000366211 10.1472 0.0383255 10.011 0.11137 9.8929C0.184414 9.77478 0.288922 9.67934 0.413173 9.61729L19.3332 0.15729Z" fill="#999999"/>
<path d="M35.2999 16.4404L39.5874 18.5854C40.1374 18.8604 40.1374 19.6454 39.5874 19.9204L20.6674 29.3804C20.4601 29.4839 20.2316 29.5377 19.9999 29.5377C19.7682 29.5377 19.5397 29.4839 19.3324 29.3804L0.412391 19.9204C0.288795 19.8581 0.184922 19.7627 0.112347 19.6449C0.0397713 19.527 0.00134277 19.3913 0.00134277 19.2529C0.00134277 19.1145 0.0397713 18.9788 0.112347 18.861C0.184922 18.7431 0.288795 18.6477 0.412391 18.5854L4.70239 16.4404L17.9949 23.0879C19.2574 23.7179 20.7449 23.7179 22.0049 23.0879L35.2974 16.4404H35.2999Z" fill="#999999"/>
</g>
<defs>
<clipPath id="clip0_857:6">
<rect width="40" height="40" fill="white"/>
</clipPath>
</defs>
</svg>
