<svg width="40" height="40" viewBox="0 0 40 40" fill="none" xmlns="http://www.w3.org/2000/svg">
<g clip-path="url(#clip0_850:34)">
<path d="M13.8001 0.8975C13.8763 0.638322 14.0344 0.410797 14.2507 0.249C14.4671 0.087203 14.73 -0.000157966 15.0001 2.14429e-07H25.0001C25.1981 0.000150484 25.3932 0.047315 25.5693 0.137611C25.7455 0.227907 25.8977 0.358752 26.0134 0.519375C26.1291 0.679998 26.205 0.865806 26.2349 1.0615C26.2647 1.2572 26.2477 1.45718 26.1851 1.645L21.7351 15H31.2501C31.4842 14.9998 31.7136 15.0654 31.9123 15.1892C32.1109 15.3131 32.2708 15.4902 32.3737 15.7005C32.4766 15.9107 32.5184 16.1456 32.4944 16.3785C32.4703 16.6113 32.3813 16.8327 32.2376 17.0175L14.7376 39.5175C14.5583 39.7491 14.3034 39.9104 14.0174 39.9733C13.7313 40.0361 13.4323 39.9965 13.1724 39.8614C12.9126 39.7262 12.7084 39.5042 12.5956 39.2339C12.4828 38.9636 12.4685 38.6623 12.5551 38.3825L17.0576 23.75H8.75012C8.55578 23.7501 8.3641 23.7049 8.19028 23.618C8.01647 23.5311 7.86531 23.4048 7.74883 23.2493C7.63234 23.0937 7.55373 22.9131 7.51924 22.7219C7.48474 22.5306 7.49532 22.334 7.55012 22.1475L13.8001 0.8975Z" fill="#999999"/>
</g>
<defs>
<clipPath id="clip0_850:34">
<rect width="40" height="40" fill="white"/>
</clipPath>
</defs>
</svg>
