<svg width="16" height="16" viewBox="0 0 16 16" fill="none" xmlns="http://www.w3.org/2000/svg">
<g clip-path="url(#clip0_589_16)">
<path d="M12.3546 4.35414C12.4011 4.30766 12.438 4.25247 12.4632 4.19173C12.4883 4.13099 12.5013 4.06589 12.5013 4.00014C12.5013 3.9344 12.4883 3.8693 12.4632 3.80856C12.438 3.74782 12.4011 3.69263 12.3546 3.64614C12.3081 3.59966 12.253 3.56278 12.1922 3.53762C12.1315 3.51246 12.0664 3.49951 12.0006 3.49951C11.9349 3.49951 11.8698 3.51246 11.809 3.53762C11.7483 3.56278 11.6931 3.59966 11.6466 3.64614L5.00063 10.2931L1.85463 7.14614C1.80814 7.09966 1.75295 7.06278 1.69222 7.03762C1.63148 7.01246 1.56638 6.99951 1.50063 6.99951C1.36786 6.99951 1.24052 7.05226 1.14663 7.14614C1.05275 7.24003 1 7.36737 1 7.50014C1 7.63292 1.05275 7.76026 1.14663 7.85414L4.64663 11.3541C4.69308 11.4007 4.74825 11.4376 4.809 11.4629C4.86974 11.4881 4.93486 11.501 5.00063 11.501C5.0664 11.501 5.13152 11.4881 5.19227 11.4629C5.25301 11.4376 5.30819 11.4007 5.35463 11.3541L12.3546 4.35414V4.35414ZM8.14663 11.3541L7.25063 10.4571L7.95763 9.75014L8.50063 10.2931L15.1466 3.64614C15.2405 3.55226 15.3679 3.49951 15.5006 3.49951C15.6334 3.49951 15.7607 3.55226 15.8546 3.64614C15.9485 3.74003 16.0013 3.86737 16.0013 4.00014C16.0013 4.13292 15.9485 4.26026 15.8546 4.35414L8.85463 11.3541C8.80819 11.4007 8.75301 11.4376 8.69227 11.4629C8.63152 11.4881 8.5664 11.501 8.50063 11.501C8.43486 11.501 8.36974 11.4881 8.309 11.4629C8.24825 11.4376 8.19308 11.4007 8.14663 11.3541V11.3541Z" fill="#999999"/>
<path d="M5.35463 7.14614L6.25063 8.04314L5.54363 8.75014L4.64663 7.85414C4.55275 7.76026 4.5 7.63292 4.5 7.50014C4.5 7.36737 4.55275 7.24003 4.64663 7.14614C4.74052 7.05226 4.86786 6.99951 5.00063 6.99951C5.13341 6.99951 5.26075 7.05226 5.35463 7.14614V7.14614Z" fill="#999999"/>
</g>
<defs>
<clipPath id="clip0_589_16">
<rect width="16" height="16" fill="white"/>
</clipPath>
</defs>
</svg>
