<svg width="40" height="40" viewBox="0 0 40 40" fill="none" xmlns="http://www.w3.org/2000/svg">
<path fill-rule="evenodd" clip-rule="evenodd" d="M20 0C18.275 0 15.3925 0.6625 12.68 1.4C9.90501 2.15 7.10751 3.0375 5.46251 3.575C4.77474 3.80213 4.16499 4.21866 3.70331 4.77675C3.24162 5.33484 2.94673 6.01185 2.85251 6.73C1.36251 17.9225 4.82001 26.2175 9.01501 31.705C10.794 34.0524 12.9151 36.1196 15.3075 37.8375C16.2725 38.52 17.1675 39.0425 17.9275 39.4C18.6275 39.73 19.38 40 20 40C20.62 40 21.37 39.73 22.0725 39.4C22.9887 38.9547 23.8652 38.4319 24.6925 37.8375C27.085 36.1196 29.2061 34.0525 30.985 31.705C35.18 26.2175 38.6375 17.9225 37.1475 6.73C37.0535 6.0115 36.7587 5.3341 36.297 4.77558C35.8353 4.21706 35.2255 3.80007 34.5375 3.5725C32.1495 2.78953 29.743 2.06432 27.32 1.3975C24.6075 0.665 21.725 0 20 0ZM20 12.5C20.8856 12.4987 21.7431 12.8108 22.4206 13.3812C23.0981 13.9515 23.5519 14.7432 23.7016 15.616C23.8513 16.4889 23.6873 17.3866 23.2386 18.1501C22.7899 18.9136 22.0854 19.4936 21.25 19.7875L22.2125 24.7625C22.2475 24.9434 22.2421 25.1299 22.1966 25.3085C22.1511 25.4871 22.0667 25.6534 21.9494 25.7956C21.8321 25.9378 21.6848 26.0522 21.5181 26.1308C21.3514 26.2093 21.1693 26.25 20.985 26.25H19.015C18.8309 26.2497 18.6492 26.2087 18.4828 26.13C18.3163 26.0512 18.1694 25.9367 18.0523 25.7946C17.9353 25.6525 17.8511 25.4863 17.8058 25.3079C17.7604 25.1295 17.755 24.9432 17.79 24.7625L18.75 19.7875C17.9146 19.4936 17.2101 18.9136 16.7614 18.1501C16.3127 17.3866 16.1487 16.4889 16.2984 15.616C16.4481 14.7432 16.9019 13.9515 17.5794 13.3812C18.2569 12.8108 19.1144 12.4987 20 12.5V12.5Z" fill="#999999"/>
</svg>
