<svg width="40" height="40" viewBox="0 0 40 40" fill="none" xmlns="http://www.w3.org/2000/svg">
<g clip-path="url(#clip0_868:2)">
<path d="M20.6925 0.209354C20.4873 0.0728358 20.2464 0 20 0C19.7536 0 19.5127 0.0728358 19.3075 0.209354L0.5575 12.7094C0.334367 12.8581 0.165003 13.0747 0.0744229 13.3272C-0.0161569 13.5796 -0.0231488 13.8545 0.0544799 14.1112C0.132109 14.3679 0.290242 14.5928 0.505521 14.7528C0.720801 14.9127 0.981812 14.9991 1.25 14.9994H5.9375V32.4994H3.75C3.41848 32.4994 3.10054 32.631 2.86612 32.8655C2.6317 33.0999 2.5 33.4178 2.5 33.7494C2.5 34.0809 2.6317 34.3988 2.86612 34.6332C3.10054 34.8677 3.41848 34.9994 3.75 34.9994H36.25C36.5815 34.9994 36.8995 34.8677 37.1339 34.6332C37.3683 34.3988 37.5 34.0809 37.5 33.7494C37.5 33.4178 37.3683 33.0999 37.1339 32.8655C36.8995 32.631 36.5815 32.4994 36.25 32.4994H34.0625V14.9994H38.75C39.0182 14.9991 39.2792 14.9127 39.4945 14.7528C39.7098 14.5928 39.8679 14.3679 39.9455 14.1112C40.0231 13.8545 40.0162 13.5796 39.9256 13.3272C39.835 13.0747 39.6656 12.8581 39.4425 12.7094L20.6925 0.209354V0.209354ZM30.9375 14.9994V32.4994H27.8125V14.9994H30.9375ZM24.6875 14.9994V32.4994H21.5625V14.9994H24.6875ZM18.4375 14.9994V32.4994H15.3125V14.9994H18.4375ZM12.1875 14.9994V32.4994H9.0625V14.9994H12.1875ZM20 9.99935C19.337 9.99935 18.7011 9.73596 18.2322 9.26712C17.7634 8.79828 17.5 8.1624 17.5 7.49935C17.5 6.83631 17.7634 6.20043 18.2322 5.73159C18.7011 5.26275 19.337 4.99935 20 4.99935C20.663 4.99935 21.2989 5.26275 21.7678 5.73159C22.2366 6.20043 22.5 6.83631 22.5 7.49935C22.5 8.1624 22.2366 8.79828 21.7678 9.26712C21.2989 9.73596 20.663 9.99935 20 9.99935V9.99935ZM1.25 37.4994C0.918479 37.4994 0.600537 37.631 0.366117 37.8655C0.131696 38.0999 0 38.4178 0 38.7494C0 39.0809 0.131696 39.3988 0.366117 39.6332C0.600537 39.8677 0.918479 39.9994 1.25 39.9994H38.75C39.0815 39.9994 39.3995 39.8677 39.6339 39.6332C39.8683 39.3988 40 39.0809 40 38.7494C40 38.4178 39.8683 38.0999 39.6339 37.8655C39.3995 37.631 39.0815 37.4994 38.75 37.4994H1.25Z" fill="#999999"/>
</g>
<defs>
<clipPath id="clip0_868:2">
<rect width="40" height="40" fill="white"/>
</clipPath>
</defs>
</svg>
