<svg width="40" height="40" viewBox="0 0 40 40" fill="none" xmlns="http://www.w3.org/2000/svg">
<g clip-path="url(#clip0_858:13)">
<path d="M20 40C25.3043 40 30.3914 37.8929 34.1421 34.1421C37.8929 30.3914 40 25.3043 40 20C40 14.6957 37.8929 9.60859 34.1421 5.85786C30.3914 2.10714 25.3043 0 20 0C14.6957 0 9.60859 2.10714 5.85786 5.85786C2.10714 9.60859 0 14.6957 0 20C0 25.3043 2.10714 30.3914 5.85786 34.1421C9.60859 37.8929 14.6957 40 20 40V40ZM36.075 26.93C34.3009 31.0306 31.0306 34.3009 26.93 36.075L24.1425 29.105C26.3399 28.1018 28.1018 26.3399 29.105 24.1425L36.075 26.93ZM13.07 36.075C8.96939 34.3009 5.6991 31.0306 3.925 26.93L10.895 24.1425C11.8982 26.3399 13.6601 28.1018 15.8575 29.105L13.07 36.075ZM36.075 13.07L29.105 15.8575C28.1018 13.6601 26.3399 11.8982 24.1425 10.895L26.93 3.925C31.0306 5.6991 34.3009 8.96939 36.075 13.07V13.07ZM15.8575 10.895C13.6601 11.8982 11.8982 13.6601 10.895 15.8575L3.925 13.07C5.6991 8.96939 8.96939 5.6991 13.07 3.925L15.8575 10.895ZM20 27.5C18.0109 27.5 16.1032 26.7098 14.6967 25.3033C13.2902 23.8968 12.5 21.9891 12.5 20C12.5 18.0109 13.2902 16.1032 14.6967 14.6967C16.1032 13.2902 18.0109 12.5 20 12.5C21.9891 12.5 23.8968 13.2902 25.3033 14.6967C26.7098 16.1032 27.5 18.0109 27.5 20C27.5 21.9891 26.7098 23.8968 25.3033 25.3033C23.8968 26.7098 21.9891 27.5 20 27.5Z" fill="#999999"/>
</g>
<defs>
<clipPath id="clip0_858:13">
<rect width="40" height="40" fill="white"/>
</clipPath>
</defs>
</svg>
