<svg width="40" height="40" viewBox="0 0 40 40" fill="none" xmlns="http://www.w3.org/2000/svg">
<g clip-path="url(#clip0_851:2)">
<path fill-rule="evenodd" clip-rule="evenodd" d="M2.50004 28.7501C2.50004 29.0816 2.63173 29.3996 2.86615 29.634C3.10057 29.8684 3.41852 30.0001 3.75004 30.0001H33.2325L25.365 37.8651C25.1303 38.0998 24.9985 38.4182 24.9985 38.7501C24.9985 39.0821 25.1303 39.4004 25.365 39.6351C25.5998 39.8698 25.9181 40.0017 26.25 40.0017C26.582 40.0017 26.9003 39.8698 27.135 39.6351L37.135 29.6351C37.2514 29.519 37.3438 29.3811 37.4068 29.2292C37.4698 29.0773 37.5023 28.9145 37.5023 28.7501C37.5023 28.5857 37.4698 28.4229 37.4068 28.271C37.3438 28.1192 37.2514 27.9812 37.135 27.8651L27.135 17.8651C26.9003 17.6304 26.582 17.4985 26.25 17.4985C25.9181 17.4985 25.5998 17.6304 25.365 17.8651C25.1303 18.0998 24.9985 18.4182 24.9985 18.7501C24.9985 19.0821 25.1303 19.4004 25.365 19.6351L33.2325 27.5001H3.75004C3.41852 27.5001 3.10057 27.6318 2.86615 27.8662C2.63173 28.1006 2.50004 28.4186 2.50004 28.7501V28.7501ZM37.5 11.2501C37.5 11.5816 37.3683 11.8996 37.1339 12.134C36.8995 12.3684 36.5816 12.5001 36.25 12.5001H6.76754L14.635 20.3651C14.7513 20.4813 14.8434 20.6193 14.9063 20.7712C14.9692 20.923 15.0016 21.0858 15.0016 21.2501C15.0016 21.4145 14.9692 21.5772 14.9063 21.7291C14.8434 21.8809 14.7513 22.0189 14.635 22.1351C14.5188 22.2513 14.3808 22.3435 14.229 22.4064C14.0771 22.4693 13.9144 22.5017 13.75 22.5017C13.5857 22.5017 13.4229 22.4693 13.2711 22.4064C13.1192 22.3435 12.9813 22.2513 12.865 22.1351L2.86504 12.1351C2.74863 12.019 2.65627 11.8811 2.59326 11.7292C2.53024 11.5773 2.4978 11.4145 2.4978 11.2501C2.4978 11.0857 2.53024 10.9229 2.59326 10.771C2.65627 10.6192 2.74863 10.4812 2.86504 10.3651L12.865 0.365114C13.0998 0.130398 13.4181 -0.00146484 13.75 -0.00146484C14.082 -0.00146484 14.4003 0.130398 14.635 0.365114C14.8698 0.599831 15.0016 0.918175 15.0016 1.25011C15.0016 1.58205 14.8698 1.9004 14.635 2.13511L6.76754 10.0001H36.25C36.5816 10.0001 36.8995 10.1318 37.1339 10.3662C37.3683 10.6007 37.5 10.9186 37.5 11.2501Z" fill="#999999"/>
</g>
<defs>
<clipPath id="clip0_851:2">
<rect width="40" height="40" fill="white"/>
</clipPath>
</defs>
</svg>
