<svg width="40" height="40" viewBox="0 0 40 40" fill="none" xmlns="http://www.w3.org/2000/svg">
<path fill-rule="evenodd" clip-rule="evenodd" d="M15 8.75C15 7.75544 15.3951 6.80161 16.0983 6.09835C16.8016 5.39509 17.7554 5 18.75 5H21.25C22.2446 5 23.1984 5.39509 23.9017 6.09835C24.6049 6.80161 25 7.75544 25 8.75V11.25C25 12.2446 24.6049 13.1984 23.9017 13.9017C23.1984 14.6049 22.2446 15 21.25 15V17.5H35C35.3315 17.5 35.6495 17.6317 35.8839 17.8661C36.1183 18.1005 36.25 18.4185 36.25 18.75V21.25C36.25 21.5815 36.1183 21.8995 35.8839 22.1339C35.6495 22.3683 35.3315 22.5 35 22.5C34.6685 22.5 34.3505 22.3683 34.1161 22.1339C33.8817 21.8995 33.75 21.5815 33.75 21.25V20H21.25V21.25C21.25 21.5815 21.1183 21.8995 20.8839 22.1339C20.6495 22.3683 20.3315 22.5 20 22.5C19.6685 22.5 19.3505 22.3683 19.1161 22.1339C18.8817 21.8995 18.75 21.5815 18.75 21.25V20H6.25V21.25C6.25 21.5815 6.1183 21.8995 5.88388 22.1339C5.64946 22.3683 5.33152 22.5 5 22.5C4.66848 22.5 4.35054 22.3683 4.11612 22.1339C3.8817 21.8995 3.75 21.5815 3.75 21.25V18.75C3.75 18.4185 3.8817 18.1005 4.11612 17.8661C4.35054 17.6317 4.66848 17.5 5 17.5H18.75V15C17.7554 15 16.8016 14.6049 16.0983 13.9017C15.3951 13.1984 15 12.2446 15 11.25V8.75ZM0 28.75C0 27.7554 0.395088 26.8016 1.09835 26.0983C1.80161 25.3951 2.75544 25 3.75 25H6.25C7.24456 25 8.19839 25.3951 8.90165 26.0983C9.60491 26.8016 10 27.7554 10 28.75V31.25C10 32.2446 9.60491 33.1984 8.90165 33.9017C8.19839 34.6049 7.24456 35 6.25 35H3.75C2.75544 35 1.80161 34.6049 1.09835 33.9017C0.395088 33.1984 0 32.2446 0 31.25L0 28.75ZM15 28.75C15 27.7554 15.3951 26.8016 16.0983 26.0983C16.8016 25.3951 17.7554 25 18.75 25H21.25C22.2446 25 23.1984 25.3951 23.9017 26.0983C24.6049 26.8016 25 27.7554 25 28.75V31.25C25 32.2446 24.6049 33.1984 23.9017 33.9017C23.1984 34.6049 22.2446 35 21.25 35H18.75C17.7554 35 16.8016 34.6049 16.0983 33.9017C15.3951 33.1984 15 32.2446 15 31.25V28.75ZM30 28.75C30 27.7554 30.3951 26.8016 31.0983 26.0983C31.8016 25.3951 32.7554 25 33.75 25H36.25C37.2446 25 38.1984 25.3951 38.9017 26.0983C39.6049 26.8016 40 27.7554 40 28.75V31.25C40 32.2446 39.6049 33.1984 38.9017 33.9017C38.1984 34.6049 37.2446 35 36.25 35H33.75C32.7554 35 31.8016 34.6049 31.0983 33.9017C30.3951 33.1984 30 32.2446 30 31.25V28.75Z" fill="#999999"/>
</svg>
