<svg width="40" height="40" viewBox="0 0 40 40" fill="none" xmlns="http://www.w3.org/2000/svg">
<path d="M13.75 5C11.4294 5 9.20376 5.92187 7.56282 7.56282C5.92187 9.20376 5 11.4294 5 13.75V26.25C5 28.5706 5.92187 30.7962 7.56282 32.4372C9.20376 34.0781 11.4294 35 13.75 35H26.25C28.5706 35 30.7962 34.0781 32.4372 32.4372C34.0781 30.7962 35 28.5706 35 26.25V20C35 19.6685 35.1317 19.3505 35.3661 19.1161C35.6005 18.8817 35.9185 18.75 36.25 18.75C36.5815 18.75 36.8995 18.8817 37.1339 19.1161C37.3683 19.3505 37.5 19.6685 37.5 20V26.25C37.5 29.2337 36.3147 32.0952 34.205 34.205C32.0952 36.3147 29.2337 37.5 26.25 37.5H13.75C10.7663 37.5 7.90483 36.3147 5.79505 34.205C3.68526 32.0952 2.5 29.2337 2.5 26.25V13.75C2.5 10.7663 3.68526 7.90483 5.79505 5.79505C7.90483 3.68526 10.7663 2.5 13.75 2.5H20C20.3315 2.5 20.6495 2.6317 20.8839 2.86612C21.1183 3.10054 21.25 3.41848 21.25 3.75C21.25 4.08152 21.1183 4.39946 20.8839 4.63388C20.6495 4.8683 20.3315 5 20 5H13.75Z" fill="#999999"/>
<path d="M40 7.5C40 9.48912 39.2098 11.3968 37.8033 12.8033C36.3968 14.2098 34.4891 15 32.5 15C30.5109 15 28.6032 14.2098 27.1967 12.8033C25.7902 11.3968 25 9.48912 25 7.5C25 5.51088 25.7902 3.60322 27.1967 2.1967C28.6032 0.790176 30.5109 0 32.5 0C34.4891 0 36.3968 0.790176 37.8033 2.1967C39.2098 3.60322 40 5.51088 40 7.5V7.5Z" fill="#999999"/>
</svg>
