<svg width="40" height="35" viewBox="0 0 40 35" fill="none" xmlns="http://www.w3.org/2000/svg">
<path d="M22.4503 1.41829C22.2029 0.987277 21.8461 0.62918 21.416 0.380156C20.9859 0.131132 20.4977 0 20.0007 0C19.5037 0 19.0156 0.131132 18.5855 0.380156C18.1554 0.62918 17.7986 0.987277 17.5512 1.41829L0.411682 30.5806C-0.730616 32.5253 0.639141 34.9974 2.86125 34.9974H37.1377C39.3598 34.9974 40.7321 32.5228 39.5873 30.5806L22.4503 1.41829ZM19.9957 10.0018C21.333 10.0018 22.3803 11.1566 22.2453 12.4888L21.3705 21.2548C21.3411 21.5992 21.1835 21.92 20.9289 22.1537C20.6744 22.3875 20.3413 22.5172 19.9957 22.5172C19.6501 22.5172 19.3171 22.3875 19.0625 22.1537C18.8079 21.92 18.6504 21.5992 18.621 21.2548L17.7461 12.4888C17.7147 12.1745 17.7495 11.857 17.8482 11.5569C17.947 11.2568 18.1075 10.9807 18.3194 10.7464C18.5313 10.5121 18.79 10.3248 19.0787 10.1966C19.3674 10.0683 19.6798 10.002 19.9957 10.0018V10.0018ZM20.0007 24.9991C20.6636 24.9991 21.2994 25.2625 21.7682 25.7312C22.2369 26.2 22.5003 26.8358 22.5003 27.4987C22.5003 28.1616 22.2369 28.7974 21.7682 29.2661C21.2994 29.7349 20.6636 29.9982 20.0007 29.9982C19.3378 29.9982 18.702 29.7349 18.2333 29.2661C17.7645 28.7974 17.5012 28.1616 17.5012 27.4987C17.5012 26.8358 17.7645 26.2 18.2333 25.7312C18.702 25.2625 19.3378 24.9991 20.0007 24.9991Z" fill="#999999"/>
</svg>
