<svg width="40" height="40" viewBox="0 0 40 40" fill="none" xmlns="http://www.w3.org/2000/svg">
<path d="M2.5 35C2.5 35 0 35 0 32.5C0 30 2.5 22.5 15 22.5C27.5 22.5 30 30 30 32.5C30 35 27.5 35 27.5 35H2.5ZM15 20C16.9891 20 18.8968 19.2098 20.3033 17.8033C21.7098 16.3968 22.5 14.4891 22.5 12.5C22.5 10.5109 21.7098 8.60322 20.3033 7.1967C18.8968 5.79018 16.9891 5 15 5C13.0109 5 11.1032 5.79018 9.6967 7.1967C8.29018 8.60322 7.5 10.5109 7.5 12.5C7.5 14.4891 8.29018 16.3968 9.6967 17.8033C11.1032 19.2098 13.0109 20 15 20V20Z" fill="#999999"/>
<path fill-rule="evenodd" clip-rule="evenodd" d="M33.75 12.5C34.0815 12.5 34.3995 12.6317 34.6339 12.8661C34.8683 13.1005 35 13.4185 35 13.75V17.5H38.75C39.0815 17.5 39.3995 17.6317 39.6339 17.8661C39.8683 18.1005 40 18.4185 40 18.75C40 19.0815 39.8683 19.3995 39.6339 19.6339C39.3995 19.8683 39.0815 20 38.75 20H35V23.75C35 24.0815 34.8683 24.3995 34.6339 24.6339C34.3995 24.8683 34.0815 25 33.75 25C33.4185 25 33.1005 24.8683 32.8661 24.6339C32.6317 24.3995 32.5 24.0815 32.5 23.75V20H28.75C28.4185 20 28.1005 19.8683 27.8661 19.6339C27.6317 19.3995 27.5 19.0815 27.5 18.75C27.5 18.4185 27.6317 18.1005 27.8661 17.8661C28.1005 17.6317 28.4185 17.5 28.75 17.5H32.5V13.75C32.5 13.4185 32.6317 13.1005 32.8661 12.8661C33.1005 12.6317 33.4185 12.5 33.75 12.5Z" fill="#999999"/>
</svg>
