<svg width="40" height="40" viewBox="0 0 40 40" fill="none" xmlns="http://www.w3.org/2000/svg">
<g clip-path="url(#clip0_848:10)">
<path d="M21.25 6.71757C22.885 4.99507 25.705 4.50257 29.03 4.83757C32.115 5.14757 35.2875 6.14507 37.5 7.07007V31.8776C35.205 31.0026 32.2325 30.1476 29.2825 29.8526C26.5475 29.5751 23.5875 29.7551 21.25 31.0826V6.71757ZM20 4.45757C17.5375 2.34007 13.9675 2.02507 10.7175 2.35007C6.9325 2.73257 3.1125 4.03007 0.7325 5.11257C0.514123 5.21189 0.328938 5.37195 0.199053 5.57365C0.0691667 5.77535 6.64286e-05 6.01017 0 6.25007L0 33.7501C5.7905e-05 33.9592 0.0525929 34.165 0.152793 34.3486C0.252993 34.5322 0.397654 34.6877 0.573527 34.8009C0.7494 34.914 0.950861 34.9813 1.15946 34.9964C1.36806 35.0116 1.57712 34.9742 1.7675 34.8876C3.9725 33.8876 7.525 32.6851 10.9675 32.3376C14.49 31.9826 17.4425 32.5551 19.025 34.5301C19.1421 34.6761 19.2905 34.7939 19.4593 34.8748C19.628 34.9558 19.8128 34.9978 20 34.9978C20.1872 34.9978 20.3719 34.9558 20.5407 34.8748C20.7095 34.7939 20.8579 34.6761 20.975 34.5301C22.5575 32.5551 25.51 31.9826 29.03 32.3376C32.475 32.6851 36.03 33.8876 38.2325 34.8876C38.4229 34.9742 38.6319 35.0116 38.8405 34.9964C39.0491 34.9813 39.2506 34.914 39.4265 34.8009C39.6023 34.6877 39.747 34.5322 39.8472 34.3486C39.9474 34.165 39.9999 33.9592 40 33.7501V6.25007C39.9999 6.01017 39.9308 5.77535 39.8009 5.57365C39.6711 5.37195 39.4859 5.21189 39.2675 5.11257C36.8875 4.03007 33.0675 2.73257 29.2825 2.35007C26.0325 2.02257 22.4625 2.34007 20 4.45757Z" fill="#999999"/>
</g>
<defs>
<clipPath id="clip0_848:10">
<rect width="40" height="40" fill="white"/>
</clipPath>
</defs>
</svg>
