<svg width="40" height="40" viewBox="0 0 40 40" fill="none" xmlns="http://www.w3.org/2000/svg">
<path d="M19.38 0.164597C19.5688 0.0567338 19.7825 0 20 0C20.2175 0 20.4312 0.0567338 20.62 0.164597L29.995 5.5221C30.1863 5.63138 30.3453 5.78929 30.456 5.97983C30.5666 6.17037 30.6249 6.38677 30.625 6.6071V16.5946L39.37 21.5946C39.5606 21.7035 39.7191 21.8606 39.8297 22.0502C39.9403 22.2398 39.9991 22.4551 40 22.6746V33.3896C39.9999 33.6099 39.9416 33.8263 39.831 34.0169C39.7203 34.2074 39.5613 34.3653 39.37 34.4746L29.995 39.8321C29.8062 39.94 29.5925 39.9967 29.375 39.9967C29.1575 39.9967 28.9438 39.94 28.755 39.8321L20 34.8321L11.245 39.8346C11.0562 39.9425 10.8425 39.9992 10.625 39.9992C10.4075 39.9992 10.1938 39.9425 10.005 39.8346L0.63 34.4771C0.438682 34.3678 0.279649 34.2099 0.169014 34.0194C0.0583781 33.8288 7.10676e-05 33.6124 0 33.3921L0 22.6771C7.10676e-05 22.4568 0.0583781 22.2404 0.169014 22.0498C0.279649 21.8593 0.438682 21.7014 0.63 21.5921L9.375 16.5946V6.6071C9.37507 6.38677 9.43338 6.17037 9.54401 5.97983C9.65465 5.78929 9.81368 5.63138 10.005 5.5221L19.38 0.164597ZM10.625 18.7596L3.77 22.6771L10.625 26.5946L17.48 22.6771L10.625 18.7596ZM18.75 24.8321L11.875 28.7596V36.5946L18.75 32.6671V24.8321ZM21.25 32.6671L28.125 36.5946V28.7596L21.25 24.8321V32.6671ZM22.52 22.6771L29.375 26.5946L36.23 22.6771L29.375 18.7596L22.52 22.6771ZM28.125 16.5946V8.7596L21.25 12.6896V20.5246L28.125 16.5946V16.5946ZM18.75 20.5246V12.6896L11.875 8.7596V16.5946L18.75 20.5246ZM13.145 6.6071L20 10.5246L26.855 6.6071L20 2.6896L13.145 6.6071ZM37.5 24.8321L30.625 28.7596V36.5946L37.5 32.6671V24.8321ZM9.375 36.5946V28.7596L2.5 24.8321V32.6671L9.375 36.5946Z" fill="#999999"/>
</svg>
