<svg width="40" height="40" viewBox="0 0 40 40" fill="none" xmlns="http://www.w3.org/2000/svg">
<g clip-path="url(#clip0_848:5)">
<path d="M27.5 32.5C29.919 32.5 32.286 31.7981 34.3139 30.4794C36.3419 29.1608 37.9436 27.2821 38.925 25.0711C39.9063 22.8601 40.2251 20.4119 39.8426 18.0234C39.4601 15.6349 38.3927 13.4086 36.77 11.6147C35.1473 9.82075 33.039 8.53617 30.7007 7.91676C28.3623 7.29734 25.8945 7.3697 23.5965 8.12506C21.2985 8.88042 19.269 10.2863 17.7542 12.1723C16.2394 14.0582 15.3044 16.3432 15.0625 18.75H10C10 17.7554 9.60491 16.8016 8.90165 16.0983C8.19839 15.3951 7.24456 15 6.25 15H3.75C2.75544 15 1.80161 15.3951 1.09835 16.0983C0.395088 16.8016 0 17.7554 0 18.75L0 21.25C0 22.2446 0.395088 23.1984 1.09835 23.9017C1.80161 24.6049 2.75544 25 3.75 25H6.25C7.24456 25 8.19839 24.6049 8.90165 23.9017C9.60491 23.1984 10 22.2446 10 21.25H15.0625C15.3724 24.3333 16.8165 27.1916 19.1146 29.2703C21.4128 31.349 24.4012 32.5 27.5 32.5V32.5ZM28.75 13.75V18.75H33.75C34.0815 18.75 34.3995 18.8817 34.6339 19.1161C34.8683 19.3505 35 19.6685 35 20C35 20.3315 34.8683 20.6495 34.6339 20.8839C34.3995 21.1183 34.0815 21.25 33.75 21.25H28.75V26.25C28.75 26.5815 28.6183 26.8995 28.3839 27.1339C28.1495 27.3683 27.8315 27.5 27.5 27.5C27.1685 27.5 26.8505 27.3683 26.6161 27.1339C26.3817 26.8995 26.25 26.5815 26.25 26.25V21.25H21.25C20.9185 21.25 20.6005 21.1183 20.3661 20.8839C20.1317 20.6495 20 20.3315 20 20C20 19.6685 20.1317 19.3505 20.3661 19.1161C20.6005 18.8817 20.9185 18.75 21.25 18.75H26.25V13.75C26.25 13.4185 26.3817 13.1005 26.6161 12.8661C26.8505 12.6317 27.1685 12.5 27.5 12.5C27.8315 12.5 28.1495 12.6317 28.3839 12.8661C28.6183 13.1005 28.75 13.4185 28.75 13.75V13.75Z" fill="#999999"/>
</g>
<defs>
<clipPath id="clip0_848:5">
<rect width="40" height="40" fill="white"/>
</clipPath>
</defs>
</svg>
