<svg id="Layer_1" data-name="Layer 1" xmlns="http://www.w3.org/2000/svg" viewBox="0 0 458 499.53"><defs><style>.cls-1{fill:#61dafb;}</style></defs><path class="cls-1" d="M724,451.45c0-29.93-37.47-58.3-94.94-75.88,13.26-58.57,7.37-105.17-18.6-120.09a40.37,40.37,0,0,0-20.63-5.16v20.54a21.37,21.37,0,0,1,10.5,2.39c12.52,7.19,18,34.54,13.72,69.72-1,8.65-2.67,17.77-4.7,27.07a446.21,446.21,0,0,0-58.47-10,450.49,450.49,0,0,0-38.31-46c30-27.9,58.2-43.19,77.35-43.19V250.23c-25.32,0-58.47,18-92,49.36-33.52-31.12-66.68-49-92-49v20.54c19.06,0,47.33,15.19,77.35,42.91a436.43,436.43,0,0,0-38,45.95,430.47,430.47,0,0,0-58.57,10.13c-2.12-9.21-3.68-18.14-4.79-26.7-4.32-35.18,1-62.53,13.45-69.81,2.76-1.65,6.35-2.39,10.59-2.39V250.69a41,41,0,0,0-20.81,5.16c-25.88,14.92-31.68,61.42-18.33,119.81-57.28,17.68-94.57,45.95-94.57,75.79s37.48,58.29,94.94,75.88c-13.26,58.57-7.37,105.16,18.6,120.08a40.5,40.5,0,0,0,20.72,5.16c25.33,0,58.48-18.05,92-49.36,33.52,31.13,66.67,49,92,49A41.07,41.07,0,0,0,611.29,647c25.87-14.92,31.68-61.42,18.32-119.8,57.1-17.59,94.39-46,94.39-75.79ZM604.11,390c-3.41,11.88-7.65,24.13-12.44,36.38-3.77-7.37-7.73-14.74-12.06-22.1s-8.75-14.55-13.26-21.55c13.07,1.93,25.69,4.33,37.76,7.27ZM561.93,488.1c-7.19,12.43-14.55,24.22-22.19,35.18-13.73,1.19-27.63,1.84-41.63,1.84s-27.81-.65-41.44-1.75c-7.64-11-15.1-22.66-22.28-35-7-12.06-13.36-24.31-19.16-36.65,5.71-12.34,12.16-24.68,19.06-36.74,7.19-12.43,14.55-24.22,22.2-35.18,13.72-1.2,27.62-1.84,41.62-1.84s27.81.64,41.44,1.75q11.46,16.44,22.29,35c7,12.07,13.35,24.31,19.15,36.66C575.19,463.69,568.84,476,561.93,488.1Zm29.74-12q7.26,18,12.71,36.65c-12.06,2.94-24.77,5.43-37.94,7.36,4.51-7.09,9-14.36,13.26-21.82s8.2-14.83,12-22.19Zm-93.38,98.26a384.92,384.92,0,0,1-25.6-29.47c8.29.37,16.76.64,25.33.64s17.22-.18,25.6-.64A358.63,358.63,0,0,1,498.29,574.39Zm-68.51-54.25c-13.08-1.93-25.69-4.32-37.75-7.27,3.4-11.88,7.64-24.13,12.43-36.38,3.77,7.37,7.73,14.74,12.06,22.11S425.27,513.15,429.78,520.14Zm68.05-191.63A376.87,376.87,0,0,1,523.43,358c-8.28-.37-16.75-.65-25.32-.65s-17.22.19-25.6.65A360.73,360.73,0,0,1,497.83,328.51Zm-68.14,54.24c-4.51,7.09-9,14.36-13.26,21.82s-8.2,14.74-12,22.1q-7.26-18-12.71-36.65C403.81,387.17,416.52,384.68,429.69,382.75ZM346.35,498c-32.6-13.9-53.69-32.13-53.69-46.59s21.09-32.79,53.69-46.6c7.92-3.41,16.57-6.45,25.51-9.3a441.69,441.69,0,0,0,20.72,56.08,437.12,437.12,0,0,0-20.45,55.81c-9.11-2.86-17.77-6-25.78-9.4Zm49.54,131.6c-12.52-7.18-18-34.53-13.72-69.71,1-8.66,2.67-17.78,4.7-27.08a446.21,446.21,0,0,0,58.47,10,449.62,449.62,0,0,0,38.31,46c-30,27.91-58.2,43.19-77.35,43.19A22,22,0,0,1,395.89,629.64Zm218.44-70.17c4.32,35.17-1,62.52-13.45,69.8-2.76,1.66-6.35,2.39-10.59,2.39-19.06,0-47.33-15.19-77.35-42.91a435.4,435.4,0,0,0,38-46,430.47,430.47,0,0,0,58.57-10.13,258.88,258.88,0,0,1,4.79,26.8ZM649.78,498c-7.92,3.41-16.58,6.45-25.51,9.3a442.25,442.25,0,0,0-20.72-56.08A435.48,435.48,0,0,0,624,395.46c9.11,2.85,17.77,6,25.87,9.39,32.6,13.9,53.69,32.14,53.69,46.6S682.38,484.23,649.78,498Z" transform="translate(-271 -250.23)"/><path class="cls-1" d="M498,493.53a42.09,42.09,0,1,0-42.09-42.08A42.08,42.08,0,0,0,498,493.53ZM292.73,725H278.84V749H271V689.81h19.58q10,0,15.35,4.55t5.41,13.24a15.88,15.88,0,0,1-3,9.63,17.71,17.71,0,0,1-8.29,6.13l13.9,25.11V749h-8.37Zm-13.89-6.38h12q5.82,0,9.22-3a10.09,10.09,0,0,0,3.46-8c0-3.65-1.1-6.46-3.29-8.41s-5.31-2.94-9.43-3H278.84Zm60.53,31.12q-8.94,0-14.55-5.85t-5.6-15.72v-1.38a26.45,26.45,0,0,1,2.47-11.66,19.49,19.49,0,0,1,7-8,17.6,17.6,0,0,1,9.75-2.93q8.58,0,13.32,5.65T356.51,726v3.13H326.73a15.77,15.77,0,0,0,3.78,10.52,12,12,0,0,0,9.26,4,13.09,13.09,0,0,0,6.74-1.62,16.77,16.77,0,0,0,4.84-4.31l4.59,3.58q-5.54,8.49-16.57,8.49Zm-.94-39.41a10,10,0,0,0-7.64,3.33c-2.05,2.2-3.33,5.29-3.81,9.27h22v-.57q-.32-5.73-3.08-8.86a9.44,9.44,0,0,0-7.48-3.17ZM392.38,749a15.46,15.46,0,0,1-1.06-4.63,16.79,16.79,0,0,1-12.51,5.45,15.64,15.64,0,0,1-10.69-3.66,12,12,0,0,1-4.14-9.34,12.39,12.39,0,0,1,5.2-10.64q5.24-3.82,14.71-3.82h7.31v-3.46a8.37,8.37,0,0,0-2.36-6.25q-2.35-2.36-6.95-2.36a11,11,0,0,0-6.74,2,6,6,0,0,0-2.72,4.92h-7.56a10.38,10.38,0,0,1,2.32-6.34,16,16,0,0,1,6.34-4.87,21.48,21.48,0,0,1,8.81-1.79q7.61,0,11.9,3.82t4.47,10.44v20.23a24.67,24.67,0,0,0,1.55,9.62V749Zm-12.48-5.72a13.23,13.23,0,0,0,6.71-1.83,11.08,11.08,0,0,0,4.59-4.75v-9h-5.89q-13.81,0-13.81,8.08a6.85,6.85,0,0,0,2.35,5.53,9.09,9.09,0,0,0,6,2Zm48.22.4a10.8,10.8,0,0,0,7-2.44,8.58,8.58,0,0,0,3.33-6.09h7.11a13.63,13.63,0,0,1-2.6,7.19,17,17,0,0,1-6.42,5.44,18.26,18.26,0,0,1-8.45,2q-9,0-14.3-6t-5.28-16.42v-1.25a26.49,26.49,0,0,1,2.36-11.42,18,18,0,0,1,6.74-7.76,19.32,19.32,0,0,1,10.44-2.76,17.57,17.57,0,0,1,12.27,4.43,15.82,15.82,0,0,1,5.24,11.49h-7.11a10.24,10.24,0,0,0-3.25-7,10,10,0,0,0-7.15-2.77,10.55,10.55,0,0,0-8.9,4.15q-3.12,4.1-3.12,11.9v1.42q0,7.59,3.12,11.7a10.57,10.57,0,0,0,8.94,4.1Zm36.11-49.27V705h8.21v5.81h-8.21v27.26a6.19,6.19,0,0,0,1.1,4,4.69,4.69,0,0,0,3.74,1.3,17.82,17.82,0,0,0,3.57-.49V749a21.49,21.49,0,0,1-5.77.82c-3.35,0-5.89-1-7.59-3s-2.56-4.92-2.56-8.65V710.81h-8V705h8V694.36ZM548.52,749h-7.84l-29.77-45.57V749h-7.84V689.81h7.84l29.85,45.78V689.81h7.76Zm39.81,0a15.78,15.78,0,0,1-1.06-4.63,16.76,16.76,0,0,1-12.51,5.45,15.63,15.63,0,0,1-10.68-3.66,12,12,0,0,1-4.14-9.34,12.36,12.36,0,0,1,5.2-10.64q5.24-3.82,14.7-3.82h7.31v-3.46a8.33,8.33,0,0,0-2.36-6.25c-1.56-1.57-3.88-2.36-6.94-2.36a11,11,0,0,0-6.74,2,6,6,0,0,0-2.72,4.92h-7.56a10.37,10.37,0,0,1,2.31-6.34,16.12,16.12,0,0,1,6.34-4.87,21.49,21.49,0,0,1,8.82-1.79q7.59,0,11.9,3.82t4.47,10.44v20.23a24.69,24.69,0,0,0,1.54,9.62V749Zm-12.47-5.72a13.17,13.17,0,0,0,6.7-1.83,11.08,11.08,0,0,0,4.59-4.75v-9h-5.89q-13.82,0-13.81,8.08a6.86,6.86,0,0,0,2.36,5.53,9.07,9.07,0,0,0,6.05,2Zm40.78-48.87V705h8.21v5.81h-8.21v27.26a6.19,6.19,0,0,0,1.1,4,4.69,4.69,0,0,0,3.74,1.3,17.91,17.91,0,0,0,3.57-.49V749a21.49,21.49,0,0,1-5.77.82c-3.35,0-5.89-1-7.59-3s-2.56-4.92-2.56-8.65V710.81h-8V705h8V694.36ZM641.83,749h-7.52V705h7.52Zm-8.13-55.61a4.54,4.54,0,0,1,1.1-3.08,5,5,0,0,1,6.66,0,4.43,4.43,0,0,1,1.14,3.08,4.29,4.29,0,0,1-1.14,3,5.15,5.15,0,0,1-6.66,0A4.39,4.39,0,0,1,633.7,693.34Zm34.69,45.42L679.28,705H687L671.2,749h-5.73l-15.92-44h7.67Zm43.47,11q-8.94,0-14.54-5.85t-5.61-15.72v-1.38a26.45,26.45,0,0,1,2.48-11.66,19.47,19.47,0,0,1,7-8,17.6,17.6,0,0,1,9.75-2.93q8.58,0,13.33,5.65T729,726v3.13H699.22A15.77,15.77,0,0,0,703,739.65a12.05,12.05,0,0,0,9.26,4A13.13,13.13,0,0,0,719,742a16.86,16.86,0,0,0,4.83-4.31l4.59,3.58q-5.52,8.49-16.57,8.49Zm-.94-39.41a10,10,0,0,0-7.63,3.33q-3.09,3.3-3.82,9.27h22v-.57q-.32-5.73-3.08-8.86a9.43,9.43,0,0,0-7.48-3.17Z" transform="translate(-271 -250.23)"/></svg>